<svg version="1.1" id="Layer_1" xmlns="http://www.w3.org/2000/svg" xmlns:xlink="http://www.w3.org/1999/xlink" x="0px" y="0px"
	 width="100%" viewBox="0 0 150 132" enable-background="new 0 0 150 132" xml:space="preserve">
<path fill="#7942D7" opacity="1.000000" stroke="none" 
	d="
M120.000000,0.999999 
	C128.020905,1.000000 136.041809,1.000000 144.532501,1.468656 
	C144.947067,13.623434 144.891846,25.309557 144.488480,37.027603 
	C142.408188,38.225319 140.463577,39.169868 138.979950,40.594501 
	C131.860413,47.430939 124.865509,54.397175 117.566467,61.080734 
	C111.688011,51.155983 106.105759,41.446362 100.412392,31.802336 
	C99.539604,30.323915 98.154282,29.148073 97.094208,27.511999 
	C103.563431,20.519415 110.022598,13.918990 116.271217,7.124917 
	C117.858040,5.399569 118.775154,3.058273 120.000000,0.999999 
z"/>
<path fill="#7942D7" opacity="1.000000" stroke="none" 
	d="
M39.000000,133.000000 
	C26.450623,133.000000 13.901246,133.000000 1.000000,133.000000 
	C1.000000,129.326920 1.000000,125.642639 1.332363,121.398277 
	C3.207551,119.627724 4.886989,118.555183 6.271052,117.184395 
	C15.318457,108.223824 24.226177,99.120560 33.367321,90.257599 
	C35.298168,88.385521 38.007130,87.315979 40.599319,86.106789 
	C43.337570,90.624535 46.202503,94.745369 48.237885,99.241714 
	C50.819328,104.944359 54.395290,108.295654 60.968918,107.504990 
	C57.657841,111.703644 54.414886,115.586166 51.087219,119.394669 
	C47.095879,123.962746 43.032299,128.467712 39.000000,133.000000 
z"/>
<path fill="#764CDE" opacity="1.000000" stroke="none" 
	d="
M80.000000,133.000000 
	C74.311958,133.000000 68.623917,133.000000 62.495956,132.641296 
	C64.252663,129.473465 66.310127,126.540619 68.674698,123.880791 
	C73.696419,118.232048 78.877991,112.725403 84.455894,107.093384 
	C87.741234,107.019104 90.590332,106.769806 93.381775,107.065201 
	C96.988411,107.446877 99.112854,106.207001 100.828232,102.913940 
	C104.353844,96.145699 108.348145,89.621597 112.499222,82.966774 
	C114.129036,82.231834 115.624168,81.755699 116.655045,80.786011 
	C124.391724,73.508583 132.007431,66.102623 139.735550,58.815960 
	C141.270660,57.368534 143.126801,56.261578 144.992889,55.313099 
	C146.474686,58.073956 147.798492,60.519325 148.830750,63.138916 
	C148.017700,63.726440 147.449203,64.092659 146.981522,64.559822 
	C125.527328,85.990105 104.070572,107.417877 82.667488,128.899124 
	C81.541054,130.029678 80.878510,131.622421 80.000000,133.000000 
z"/>
<path fill="#8567E9" opacity="1.000000" stroke="none" 
	d="
M1.000000,61.000000 
	C1.000000,56.975075 1.000000,52.950150 1.332358,48.381699 
	C2.859935,46.974567 4.196656,46.253151 5.228945,45.225830 
	C18.637381,31.881952 32.020554,18.512466 45.346146,5.085968 
	C46.466095,3.957540 47.126236,2.372762 48.000000,1.000000 
	C52.024925,1.000000 56.049850,1.000000 60.456474,1.332358 
	C59.974991,2.859505 59.254887,4.196893 58.227341,5.227861 
	C40.546352,22.967714 22.841015,40.683418 5.084854,58.347965 
	C3.958523,59.468483 2.372284,60.126709 1.000000,61.000000 
z"/>
<path fill="#876FED" opacity="1.000000" stroke="none" 
	d="
M47.532059,1.000000 
	C47.126236,2.372762 46.466095,3.957540 45.346146,5.085968 
	C32.020554,18.512466 18.637381,31.881952 5.228945,45.225830 
	C4.196656,46.253151 2.859935,46.974567 1.332358,47.919083 
	C1.000000,42.311958 1.000000,36.623920 1.332387,30.387106 
	C2.378446,29.433271 3.223702,29.160889 3.786021,28.603214 
	C12.019517,20.437723 20.234861,12.253549 28.387976,4.008016 
	C29.154922,3.232376 29.473339,2.013232 30.000000,1.000000 
	C35.688042,1.000000 41.376080,1.000000 47.532059,1.000000 
z"/>
<path fill="#7550E1" opacity="1.000000" stroke="none" 
	d="
M80.454109,133.000000 
	C80.878510,131.622421 81.541054,130.029678 82.667488,128.899124 
	C104.070572,107.417877 125.527328,85.990105 146.981522,64.559822 
	C147.449203,64.092659 148.017700,63.726440 149.099350,63.271236 
	C150.106339,63.819557 150.553177,64.409775 151.000000,65.000000 
	C151.000000,66.066673 151.000000,67.133339 150.677414,68.733978 
	C148.609512,72.191612 146.864197,75.115280 144.777664,78.107178 
	C143.228500,79.013794 141.862030,79.692970 140.836319,80.714355 
	C124.737976,96.744896 108.668549,112.804611 92.651329,128.916122 
	C91.531403,130.042648 90.873016,131.628006 90.000000,133.000000 
	C86.969406,133.000000 83.938812,133.000000 80.454109,133.000000 
z"/>
<path fill="#7D49D9" opacity="1.000000" stroke="none" 
	d="
M40.357559,85.876656 
	C38.007130,87.315979 35.298168,88.385521 33.367321,90.257599 
	C24.226177,99.120560 15.318457,108.223824 6.271052,117.184395 
	C4.886989,118.555183 3.207551,119.627724 1.332363,120.919098 
	C1.000000,115.311958 1.000000,109.623917 1.358727,103.440109 
	C3.479946,101.794426 5.484745,100.893631 6.965134,99.453690 
	C15.777465,90.882088 24.468588,82.185875 33.456993,73.783508 
	C35.928230,77.982567 38.142895,81.929611 40.357559,85.876656 
z"/>
<path fill="#8259E1" opacity="1.000000" stroke="none" 
	d="
M1.000000,89.000000 
	C1.000000,84.974815 1.000000,80.949638 1.332382,76.381378 
	C3.209680,74.625786 4.894374,73.553886 6.277688,72.178802 
	C18.845812,59.685509 31.298464,47.075012 43.966343,34.684311 
	C45.683430,33.004795 48.402431,32.349609 50.528721,31.560913 
	C44.548008,41.934998 38.696095,51.968296 32.476883,62.012497 
	C30.150631,63.104698 27.850918,63.831089 26.291414,65.328423 
	C19.352585,71.990662 12.665368,78.914177 5.788513,85.642380 
	C4.413516,86.987648 2.607353,87.892220 1.000000,89.000000 
z"/>
<path fill="#7745D9" opacity="1.000000" stroke="none" 
	d="
M83.994019,107.160507 
	C78.877991,112.725403 73.696419,118.232048 68.674698,123.880791 
	C66.310127,126.540619 64.252663,129.473465 62.028015,132.641296 
	C54.645748,133.000000 47.291500,133.000000 39.468624,133.000000 
	C43.032299,128.467712 47.095879,123.962746 51.087219,119.394669 
	C54.414886,115.586166 57.657841,111.703644 61.433472,107.438721 
	C69.283760,107.069199 76.638893,107.114861 83.994019,107.160507 
z"/>
<path fill="#7558E7" opacity="1.000000" stroke="none" 
	d="
M116.000000,133.000000 
	C111.643097,133.000000 107.286201,133.000000 102.492538,132.641266 
	C102.972160,130.754349 103.628410,128.968994 104.845352,127.737885 
	C116.423065,116.025383 128.059341,104.369797 139.792099,92.812881 
	C141.114227,91.510567 143.135620,90.918159 144.899841,90.457260 
	C144.922256,95.277412 144.877563,99.636864 144.512726,104.086235 
	C135.017838,113.165672 125.835091,122.147057 116.693939,131.170593 
	C116.271904,131.587189 116.222794,132.381561 116.000000,133.000000 
z"/>
<path fill="#7554E4" opacity="1.000000" stroke="none" 
	d="
M144.832748,89.996559 
	C143.135620,90.918159 141.114227,91.510567 139.792099,92.812881 
	C128.059341,104.369797 116.423065,116.025383 104.845352,127.737885 
	C103.628410,128.968994 102.972160,130.754349 102.027885,132.641266 
	C98.307091,133.000000 94.614182,133.000000 90.460640,133.000000 
	C90.873016,131.628006 91.531403,130.042648 92.651329,128.916122 
	C108.668549,112.804611 124.737976,96.744896 140.836319,80.714355 
	C141.862030,79.692970 143.228500,79.013794 144.731659,78.563385 
	C144.962158,82.633087 144.897461,86.314827 144.832748,89.996559 
z"/>
<path fill="#8361E6" opacity="1.000000" stroke="none" 
	d="
M1.000000,61.444164 
	C2.372284,60.126709 3.958523,59.468483 5.084854,58.347965 
	C22.841015,40.683418 40.546352,22.967714 58.227341,5.227861 
	C59.254887,4.196893 59.974991,2.859505 60.919083,1.332358 
	C63.370556,1.000000 65.741112,1.000000 68.474945,1.332367 
	C67.853523,2.981586 67.012154,4.441350 65.862816,5.594047 
	C45.759144,25.756540 25.631042,45.894779 5.452573,65.982361 
	C4.204192,67.225121 2.494865,68.004845 1.000000,69.000000 
	C1.000000,66.629440 1.000000,64.258888 1.000000,61.444164 
z"/>
<path fill="#825DE4" opacity="1.000000" stroke="none" 
	d="
M1.000000,69.437500 
	C2.494865,68.004845 4.204192,67.225121 5.452573,65.982361 
	C25.631042,45.894779 45.759144,25.756540 65.862816,5.594047 
	C67.012154,4.441350 67.853523,2.981586 68.919113,1.332367 
	C71.041664,1.000000 73.083336,1.000000 75.481644,1.332381 
	C74.748138,3.087263 73.791267,4.640654 72.544952,5.909801 
	C66.882385,11.676097 61.069641,17.296381 55.471584,23.123539 
	C54.065788,24.586870 53.254692,26.621521 52.122902,28.661163 
	C51.602848,29.692518 51.130180,30.456324 50.657516,31.220127 
	C48.402431,32.349609 45.683430,33.004795 43.966343,34.684311 
	C31.298464,47.075012 18.845812,59.685509 6.277688,72.178802 
	C4.894374,73.553886 3.209680,74.625786 1.332382,75.919144 
	C1.000000,73.958336 1.000000,71.916664 1.000000,69.437500 
z"/>
<path fill="#8977F1" opacity="1.000000" stroke="none" 
	d="
M29.531342,1.000000 
	C29.473339,2.013232 29.154922,3.232376 28.387976,4.008016 
	C20.234861,12.253549 12.019517,20.437723 3.786021,28.603214 
	C3.223702,29.160889 2.378446,29.433271 1.332387,29.919167 
	C1.000000,20.406855 1.000000,10.813709 1.000000,1.000000 
	C10.353074,1.000000 19.707878,1.000000 29.531342,1.000000 
z"/>
<path fill="#755EEA" opacity="1.000000" stroke="none" 
	d="
M116.468658,133.000000 
	C116.222794,132.381561 116.271904,131.587189 116.693939,131.170593 
	C125.835091,122.147057 135.017838,113.165672 144.579773,104.550934 
	C144.977997,114.283813 144.988998,123.641907 145.000000,133.000000 
	C135.645767,133.000000 126.291542,133.000000 116.468658,133.000000 
z"/>
<path fill="#7F50DD" opacity="1.000000" stroke="none" 
	d="
M1.000000,89.464645 
	C2.607353,87.892220 4.413516,86.987648 5.788513,85.642380 
	C12.665368,78.914177 19.352585,71.990662 26.291414,65.328423 
	C27.850918,63.831089 30.150631,63.104698 32.384102,62.348961 
	C27.649563,66.552498 31.333906,69.996651 33.200417,73.531509 
	C24.468588,82.185875 15.777465,90.882088 6.965134,99.453690 
	C5.484745,100.893631 3.479946,101.794426 1.358727,102.972168 
	C1.000000,98.643097 1.000000,94.286201 1.000000,89.464645 
z"/>
<path fill="#7C48D9" opacity="1.000000" stroke="none" 
	d="
M119.533882,0.999999 
	C118.775154,3.058273 117.858040,5.399569 116.271217,7.124917 
	C110.022598,13.918990 103.563431,20.519415 96.632103,27.580654 
	C91.390144,27.926058 86.698494,27.882519 82.036194,27.490360 
	C83.118095,25.520369 83.945625,23.682014 85.262924,22.315926 
	C90.422623,16.965105 95.794769,11.819234 100.958801,6.472440 
	C102.520439,4.855530 103.664604,2.835422 105.000000,1.000000 
	C109.689255,1.000000 114.378510,1.000000 119.533882,0.999999 
z"/>
<path fill="#7F50DD" opacity="1.000000" stroke="none" 
	d="
M104.533882,1.000000 
	C103.664604,2.835422 102.520439,4.855530 100.958801,6.472440 
	C95.794769,11.819234 90.422623,16.965105 85.262924,22.315926 
	C83.945625,23.682014 83.118095,25.520369 81.573959,27.558426 
	C76.391174,27.926468 71.699966,27.877827 67.037613,27.481121 
	C68.003410,25.629818 68.715317,23.910034 69.916847,22.661402 
	C74.726135,17.663565 79.760727,12.882196 84.557579,7.872898 
	C86.569771,5.771585 88.197495,3.302105 90.000000,1.000001 
	C94.689255,1.000000 99.378510,1.000000 104.533882,1.000000 
z"/>
<path fill="#8259E1" opacity="1.000000" stroke="none" 
	d="
M89.535355,1.000001 
	C88.197495,3.302105 86.569771,5.771585 84.557579,7.872898 
	C79.760727,12.882196 74.726135,17.663565 69.916847,22.661402 
	C68.715317,23.910034 68.003410,25.629818 66.575439,27.546480 
	C61.446365,28.104475 56.808331,28.249043 52.170292,28.393610 
	C53.254692,26.621521 54.065788,24.586870 55.471584,23.123539 
	C61.069641,17.296381 66.882385,11.676097 72.544952,5.909801 
	C73.791267,4.640654 74.748138,3.087263 75.919144,1.332381 
	C80.356903,1.000000 84.713799,1.000000 89.535355,1.000001 
z"/>
<path fill="#FFFFFF" opacity="1.000000" stroke="none" 
	d="
M145.499481,133.000000 
	C144.988998,123.641907 144.977997,114.283813 144.899933,104.461014 
	C144.877563,99.636864 144.922256,95.277412 144.899841,90.457260 
	C144.897461,86.314827 144.962158,82.633087 145.072876,78.495148 
	C146.864197,75.115280 148.609512,72.191612 150.677414,69.133972 
	C151.000000,90.333344 151.000000,111.666679 151.000000,133.000000 
	C149.308350,133.000000 147.653641,133.000000 145.499481,133.000000 
z"/>
<path fill="#FFFFFF" opacity="1.000000" stroke="none" 
	d="
M151.000000,64.531342 
	C150.553177,64.409775 150.106339,63.819557 149.390900,63.097015 
	C147.798492,60.519325 146.474686,58.073956 145.058472,54.849342 
	C144.922928,48.378624 144.879761,42.687149 144.836609,36.995678 
	C144.891846,25.309557 144.947067,13.623434 145.001144,1.468656 
	C146.987411,1.000000 148.974838,1.000000 151.000000,1.000000 
	C151.000000,22.020882 151.000000,43.041782 151.000000,64.531342 
z"/>
<path fill="#F6F2FC" opacity="1.000000" stroke="none" 
	d="
M52.122902,28.661163 
	C56.808331,28.249043 61.446365,28.104475 66.546585,27.894547 
	C71.699966,27.877827 76.391174,27.926468 81.544601,27.907043 
	C86.698494,27.882519 91.390144,27.926058 96.543907,27.900942 
	C98.154282,29.148073 99.539604,30.323915 100.412392,31.802336 
	C106.105759,41.446362 111.688011,51.155983 117.642624,61.413181 
	C121.320847,65.798668 120.770706,69.407463 117.870842,73.323441 
	C115.653267,76.318054 114.034599,79.756165 112.149536,82.997009 
	C108.348145,89.621597 104.353844,96.145699 100.828232,102.913940 
	C99.112854,106.207001 96.988411,107.446877 93.381775,107.065201 
	C90.590332,106.769806 87.741234,107.019104 84.455902,107.093384 
	C76.638893,107.114861 69.283760,107.069199 61.464073,107.089813 
	C54.395290,108.295654 50.819328,104.944359 48.237885,99.241714 
	C46.202503,94.745369 43.337570,90.624535 40.599319,86.106789 
	C38.142895,81.929611 35.928230,77.982567 33.456993,73.783508 
	C31.333906,69.996651 27.649563,66.552498 32.751400,62.338062 
	C38.696095,51.968296 44.548008,41.934998 50.528717,31.560911 
	C51.130180,30.456324 51.602848,29.692518 52.122902,28.661163 
M91.608498,33.919167 
	C91.399521,33.364876 91.190544,32.810581 90.055473,32.132797 
	C84.376488,32.189678 78.697502,32.246563 72.095497,32.123196 
	C71.599098,32.103649 71.089592,32.150249 70.608223,32.054867 
	C59.128975,29.780218 51.682964,33.947025 47.331879,45.103527 
	C44.805023,51.582561 40.482872,57.361427 36.674004,63.966179 
	C40.420532,63.966179 43.211658,63.966179 46.929127,64.118874 
	C54.745190,64.146515 62.566204,64.330856 70.373611,64.084320 
	C72.175880,64.027405 74.729561,62.975510 75.578812,61.564022 
	C80.972427,52.599651 85.984863,43.405930 91.608498,33.919167 
M115.033646,65.253464 
	C109.271141,55.224663 103.508644,45.195862 97.303230,34.396244 
	C91.081924,45.272614 85.285042,55.324490 79.630486,65.455811 
	C79.197975,66.230766 79.441727,67.755341 79.930420,68.612686 
	C83.466759,74.816628 87.147079,80.938484 90.931221,87.783371 
	C93.083298,91.564056 95.235374,95.344734 97.804527,99.858124 
	C104.038498,89.060463 109.727196,79.303116 115.261070,69.458740 
	C115.758507,68.573845 115.255005,67.126289 115.033646,65.253464 
M84.863647,87.692894 
	C82.038963,82.784782 79.069878,77.952194 76.447464,72.938286 
	C75.029968,70.228104 73.272842,69.158165 70.172920,69.216553 
	C60.179878,69.404739 50.181213,69.282104 40.184917,69.325745 
	C38.974251,69.331024 37.764816,69.620049 36.043468,69.844131 
	C42.200577,80.501060 47.986576,90.599312 53.901009,100.621773 
	C54.485409,101.612076 55.847675,102.771072 56.862389,102.783890 
	C68.770782,102.934296 80.681763,102.880409 93.538948,102.880409 
	C90.443970,97.480133 87.824768,92.910011 84.863647,87.692894 
z"/>
<path fill="#7748DB" opacity="1.000000" stroke="none" 
	d="
M112.499222,82.966766 
	C114.034599,79.756165 115.653267,76.318054 117.870842,73.323441 
	C120.770706,69.407463 121.320847,65.798668 117.902496,61.649761 
	C124.865509,54.397175 131.860413,47.430939 138.979950,40.594501 
	C140.463577,39.169868 142.408188,38.225319 144.488480,37.027603 
	C144.879761,42.687149 144.922928,48.378624 144.900497,54.533852 
	C143.126801,56.261578 141.270660,57.368534 139.735550,58.815960 
	C132.007431,66.102623 124.391724,73.508583 116.655045,80.786011 
	C115.624168,81.755699 114.129036,82.231834 112.499222,82.966766 
z"/>
<path fill="#7A45D7" opacity="1.000000" stroke="none" 
	d="
M85.034607,88.016388 
	C87.824768,92.910011 90.443970,97.480133 93.538948,102.880409 
	C80.681763,102.880409 68.770782,102.934296 56.862389,102.783890 
	C55.847675,102.771072 54.485409,101.612076 53.901009,100.621773 
	C47.986576,90.599312 42.200577,80.501060 36.043468,69.844131 
	C37.764816,69.620049 38.974251,69.331024 40.184917,69.325745 
	C50.181213,69.282104 60.179878,69.404739 70.172920,69.216553 
	C73.272842,69.158165 75.029968,70.228104 76.447464,72.938286 
	C79.069878,77.952194 82.038963,82.784782 85.034607,88.016388 
z"/>
<path fill="#7A45D7" opacity="1.000000" stroke="none" 
	d="
M90.781815,87.086334 
	C87.147079,80.938484 83.466759,74.816628 79.930420,68.612686 
	C79.441727,67.755341 79.197975,66.230766 79.630486,65.455811 
	C85.285042,55.324490 91.081924,45.272614 97.303230,34.396244 
	C103.508644,45.195862 109.271141,55.224663 114.777710,65.680023 
	C108.829376,71.424629 103.187378,76.798248 97.417587,82.030960 
	C95.365356,83.892166 93.002747,85.411140 90.781815,87.086334 
z"/>
<path fill="#7D48D9" opacity="1.000000" stroke="none" 
	d="
M73.018517,32.303444 
	C78.697502,32.246563 84.376488,32.189678 90.531540,32.533669 
	C91.046043,33.385632 91.084488,33.836720 91.122940,34.287811 
	C85.984863,43.405930 80.972427,52.599651 75.578812,61.564022 
	C74.729561,62.975510 72.175880,64.027405 70.373611,64.084320 
	C62.566204,64.330856 54.745190,64.146515 46.493240,63.685936 
	C47.199558,61.506386 48.098854,59.523994 49.525856,58.053806 
	C55.837875,51.550777 62.381081,45.271362 68.659592,38.737083 
	C70.428505,36.896111 71.582481,34.464272 73.018517,32.303444 
z"/>
<path fill="#8152DD" opacity="1.000000" stroke="none" 
	d="
M72.557007,32.213318 
	C71.582481,34.464272 70.428505,36.896111 68.659592,38.737083 
	C62.381081,45.271362 55.837875,51.550777 49.525856,58.053806 
	C48.098854,59.523994 47.199558,61.506386 46.030067,63.609589 
	C43.211658,63.966179 40.420532,63.966179 36.674004,63.966179 
	C40.482872,57.361427 44.805023,51.582561 47.331879,45.103527 
	C51.682964,33.947025 59.128975,29.780218 70.608223,32.054867 
	C71.089592,32.150249 71.599098,32.103649 72.557007,32.213318 
z"/>
<path fill="#7B4CDB" opacity="1.000000" stroke="none" 
	d="
M90.856522,87.434853 
	C93.002747,85.411140 95.365356,83.892166 97.417587,82.030960 
	C103.187378,76.798248 108.829376,71.424629 114.869057,66.023300 
	C115.255005,67.126289 115.758507,68.573845 115.261070,69.458740 
	C109.727196,79.303116 104.038498,89.060463 97.804527,99.858124 
	C95.235374,95.344734 93.083298,91.564056 90.856522,87.434853 
z"/>
<path fill="#8152DD" opacity="1.000000" stroke="none" 
	d="
M91.365715,34.103485 
	C91.084488,33.836720 91.046043,33.385632 90.994583,32.595413 
	C91.190544,32.810581 91.399521,33.364876 91.365715,34.103485 
z"/>
</svg>